<svg width="19" height="19" viewBox="0 0 19 19" fill="none" xmlns="http://www.w3.org/2000/svg">
  <path
    d="M6.98257 14.5366C6.76758 14.5366 6.55742 14.6002 6.37866 14.7195C6.1999 14.8388 6.06057 15.0083 5.97829 15.2066C5.89602 15.4049 5.87449 15.6232 5.91644 15.8337C5.95838 16.0442 6.06191 16.2376 6.21393 16.3894C6.36596 16.5412 6.55964 16.6446 6.77051 16.6865C6.98137 16.7283 7.19993 16.7068 7.39856 16.6247C7.59719 16.5426 7.76696 16.4034 7.8864 16.225C8.00585 16.0465 8.0696 15.8366 8.0696 15.622C8.0696 15.3341 7.95507 15.058 7.75122 14.8545C7.54736 14.6509 7.27087 14.5366 6.98257 14.5366ZM14.5918 12.3659H5.89555C5.70335 12.3659 5.51903 12.2896 5.38312 12.1539C5.24722 12.0182 5.17087 11.8342 5.17087 11.6423C5.17087 11.4504 5.24722 11.2663 5.38312 11.1306C5.51903 10.9949 5.70335 10.9187 5.89555 10.9187H12.0488C12.521 10.9172 12.9799 10.763 13.3568 10.4791C13.7338 10.1953 14.0084 9.79705 14.1395 9.3442L15.2882 5.32834C15.3189 5.22072 15.3242 5.10745 15.3036 4.99744C15.2831 4.88743 15.2373 4.78368 15.1698 4.69434C15.1023 4.605 15.0149 4.53251 14.9147 4.48257C14.8144 4.43262 14.7038 4.40659 14.5918 4.40651H5.70713C5.55698 3.98467 5.28017 3.61935 4.91445 3.36036C4.54872 3.10138 4.11189 2.96134 3.66353 2.95935H2.99682C2.80462 2.95935 2.62029 3.03558 2.48439 3.17128C2.34848 3.30698 2.27213 3.49102 2.27213 3.68293C2.27213 3.87483 2.34848 4.05888 2.48439 4.19457C2.62029 4.33027 2.80462 4.40651 2.99682 4.40651H3.66425C3.82162 4.40701 3.97459 4.45839 4.10026 4.55296C4.22594 4.64752 4.31755 4.78019 4.3614 4.9311L4.47372 5.32545V5.32907L5.66293 9.48385C5.10939 9.54294 4.59964 9.81179 4.23874 10.235C3.87784 10.6582 3.69329 11.2035 3.72311 11.7586C3.75294 12.3136 3.99487 12.8361 4.39905 13.2183C4.80323 13.6005 5.33886 13.8134 5.89555 13.813H14.5918C14.7839 13.813 14.9683 13.7368 15.1042 13.6011C15.2401 13.4654 15.3164 13.2813 15.3164 13.0894C15.3164 12.8975 15.2401 12.7135 15.1042 12.5778C14.9683 12.4421 14.7839 12.3659 14.5918 12.3659ZM13.6308 5.85366L12.7467 8.94623C12.703 9.09739 12.6113 9.2303 12.4855 9.32502C12.3596 9.41974 12.2064 9.47116 12.0488 9.47155H7.16664L6.98185 8.82612L6.1318 5.85366H13.6308ZM12.78 14.5366C12.565 14.5366 12.3549 14.6002 12.1761 14.7195C11.9974 14.8388 11.858 15.0083 11.7758 15.2066C11.6935 15.4049 11.672 15.6232 11.7139 15.8337C11.7558 16.0442 11.8594 16.2376 12.0114 16.3894C12.1634 16.5412 12.3571 16.6446 12.568 16.6865C12.7788 16.7283 12.9974 16.7068 13.196 16.6247C13.3947 16.5426 13.5644 16.4034 13.6839 16.225C13.8033 16.0465 13.8671 15.8366 13.8671 15.622C13.8671 15.3341 13.7525 15.058 13.5487 14.8545C13.3448 14.6509 13.0683 14.5366 12.78 14.5366Z"
    fill="#E6F0F6"/>
</svg>
