<?xml version="1.0" encoding="iso-8859-1"?>
<!-- Uploaded to: SVG Repo, www.svgrepo.com, Generator: SVG Repo Mixer Tools -->
<svg height="800px" width="800px" version="1.1" id="Layer_1" xmlns="http://www.w3.org/2000/svg" xmlns:xlink="http://www.w3.org/1999/xlink" 
	 viewBox="0 0 512 512" xml:space="preserve">
<g>
	<g>
		<g>
			<path style="fill:#010101;" d="M490.305,265.22H21.695C9.763,265.22,0,274.983,0,286.915v167.051
				c0,11.932,9.763,21.695,21.695,21.695h33.627v14.102c0,11.932,9.763,21.695,21.695,21.695s21.695-8.678,21.695-21.695v-14.102
				h314.576v14.102c0,11.932,9.763,21.695,21.695,21.695c10.847,0,20.61-8.678,21.695-21.695v-14.102h33.627
				c11.932,0,20.61-9.763,21.695-21.695V286.915C512,274.983,502.237,265.22,490.305,265.22z M43.39,307.525h190.915v124.746H83.759
				c-2.125-0.7-4.39-1.085-6.742-1.085s-4.617,0.384-6.742,1.085H43.39V307.525z M468.61,432.271h-26.885
				c-2.125-0.7-4.39-1.085-6.742-1.085s-4.617,0.384-6.742,1.085H277.695V307.525H468.61V432.271z"/>
			<path style="fill:#010101;" d="M373.153,368.271h1.085c11.932,0,21.695-9.763,21.695-21.695s-9.763-21.695-21.695-21.695h-1.085
				c-11.932,0-21.695,9.763-21.695,21.695S361.22,368.271,373.153,368.271z"/>
			<path style="fill:#010101;" d="M136.678,368.271h2.169c11.932,0,20.61-9.763,20.61-21.695s-9.763-21.695-21.695-21.695h-1.085
				c-11.932,0-21.695,9.763-21.695,21.695S124.746,368.271,136.678,368.271z"/>
			<path style="fill:#010101;" d="M120.407,230.508h271.186c11.932,0,21.695-9.763,21.695-21.695V22.237
				c0-11.932-9.763-21.695-21.695-21.695H120.407c-11.932,0-21.695,9.763-21.695,21.695v186.576
				C98.712,220.746,108.475,230.508,120.407,230.508z M142.102,43.932h228.881v143.186H142.102V43.932z"/>
		</g>
	</g>
</g>
</svg>